HIERARCHY
ROOT Hips
{
    OFFSET 0.000000 0.000000 0.000000
    CHANNELS 6 Xposition Yposition Zposition Zrotation Yrotation Xrotation
    JOINT Chest
    {
        OFFSET 0.000000 1.634758 -0.000000
        CHANNELS 3 Zrotation Yrotation Xrotation
        JOINT Chest2
        {
            OFFSET 0.000000 2.197341 0.000000
            CHANNELS 3 Zrotation Yrotation Xrotation
            JOINT Neck
            {
                OFFSET 0.000000 0.961544 0.000000
                CHANNELS 3 Zrotation Yrotation Xrotation
                JOINT Head
                {
                    OFFSET 0.000000 0.632542 -0.032565
                    CHANNELS 3 Zrotation Yrotation Xrotation
                    End Site
                    {
                        OFFSET -0.000001 0.439502 2.922845
                    }
                }
            }
            JOINT LeftCollar
            {
                OFFSET 0.167536 0.778237 -0.168280
                CHANNELS 3 Zrotation Yrotation Xrotation
                JOINT LeftShoulder
                {
                    OFFSET 0.831514 -0.002900 0.006458
                    CHANNELS 3 Zrotation Yrotation Xrotation
                    JOINT LeftElbow
                    {
                        OFFSET 2.272872 -0.026639 0.059314
                        CHANNELS 3 Zrotation Yrotation Xrotation
                        JOINT LeftWrist
                        {
                            OFFSET 2.081982 -0.024402 0.054333
                            CHANNELS 3 Zrotation Yrotation Xrotation
                            JOINT LeftHandThumb1
                            {
                                OFFSET 0.218903 -0.128645 0.283837
                                CHANNELS 3 Zrotation Yrotation Xrotation
                                JOINT LeftHandThumb2
                                {
                                    OFFSET 0.137157 -0.025101 0.077902
                                    CHANNELS 3 Zrotation Yrotation Xrotation
                                    JOINT LeftHandThumb3
                                    {
                                        OFFSET 0.135460 -0.118485 -0.033926
                                        CHANNELS 3 Zrotation Yrotation Xrotation
                                        End Site
                                        {
                                            OFFSET 0.159508 -0.203028 -0.071927
                                        }
                                    }
                                }
                            }
                            JOINT LeftHandFore1
                            {
                                OFFSET 0.767340 -0.016076 0.196678
                                CHANNELS 3 Zrotation Yrotation Xrotation
                                JOINT LeftHandFore2
                                {
                                    OFFSET 0.208512 -0.021544 0.055261
                                    CHANNELS 3 Zrotation Yrotation Xrotation
                                    JOINT LeftHandFore3
                                    {
                                        OFFSET 0.126288 0.002645 0.028412
                                        CHANNELS 3 Zrotation Yrotation Xrotation
                                        End Site
                                        {
                                            OFFSET 0.188715 0.024530 0.033938
                                        }
                                    }
                                }
                            }
                            JOINT LeftHandMiddle1
                            {
                                OFFSET 0.709887 -0.008320 0.018526
                                CHANNELS 3 Zrotation Yrotation Xrotation
                                JOINT LeftHandMiddle2
                                {
                                    OFFSET 0.000320 -0.241354 0.042567
                                    CHANNELS 3 Zrotation Yrotation Xrotation
                                    JOINT LeftHandMiddle3
                                    {
                                        OFFSET -0.141341 -0.032830 0.018115
                                        CHANNELS 3 Zrotation Yrotation Xrotation
                                        End Site
                                        {
                                            OFFSET 0.000432 0.235529 -0.012495
                                        }
                                    }
                                }
                            }
                            JOINT LeftHandRing1
                            {
                                OFFSET 0.743817 -0.005823 -0.153668
                                CHANNELS 3 Zrotation Yrotation Xrotation
                                JOINT LeftHandRing2
                                {
                                    OFFSET -0.012160 -0.351343 0.033819
                                    CHANNELS 3 Zrotation Yrotation Xrotation
                                    JOINT LeftHandRing3
                                    {
                                        OFFSET -0.131637 -0.026068 0.024447
                                        CHANNELS 3 Zrotation Yrotation Xrotation
                                        End Site
                                        {
                                            OFFSET 0.004416 0.117107 -0.026194
                                        }
                                    }
                                }
                            }
                            JOINT LeftHandLittle1
                            {
                                OFFSET 0.689408 -0.053302 -0.308304
                                CHANNELS 3 Zrotation Yrotation Xrotation
                                JOINT LeftHandLittle2
                                {
                                    OFFSET -0.002359 -0.193827 0.021902
                                    CHANNELS 3 Zrotation Yrotation Xrotation
                                    JOINT LeftHandLittle3
                                    {
                                        OFFSET -0.118369 -0.021960 0.001641
                                        CHANNELS 3 Zrotation Yrotation Xrotation
                                        End Site
                                        {
                                            OFFSET -0.074534 0.172731 -0.029953
                                        }
                                    }
                                }
                            }
                        }
                    }
                }
            }
            JOINT RightCollar
            {
                OFFSET -0.167536 0.778237 -0.168280
                CHANNELS 3 Zrotation Yrotation Xrotation
                JOINT RightShoulder
                {
                    OFFSET -0.831514 -0.002900 0.006457
                    CHANNELS 3 Zrotation Yrotation Xrotation
                    JOINT RightElbow
                    {
                        OFFSET -2.272872 -0.026639 0.059313
                        CHANNELS 3 Zrotation Yrotation Xrotation
                        JOINT RightWrist
                        {
                            OFFSET -2.081982 -0.024402 0.054331
                            CHANNELS 3 Zrotation Yrotation Xrotation
                            JOINT RightHandThumb1
                            {
                                OFFSET -0.218911 -0.128571 0.283837
                                CHANNELS 3 Zrotation Yrotation Xrotation
                                JOINT RightHandThumb2
                                {
                                    OFFSET -0.137157 -0.025101 0.077902
                                    CHANNELS 3 Zrotation Yrotation Xrotation
                                    JOINT RightHandThumb3
                                    {
                                        OFFSET -0.159007 -0.086373 0.028210
                                        CHANNELS 3 Zrotation Yrotation Xrotation
                                        End Site
                                        {
                                            OFFSET -0.232385 -0.133003 -0.011993
                                        }
                                    }
                                }
                            }
                            JOINT RightHandFore1
                            {
                                OFFSET -0.767344 -0.015991 0.196679
                                CHANNELS 3 Zrotation Yrotation Xrotation
                                JOINT RightHandFore2
                                {
                                    OFFSET 0.016047 -0.214664 0.025658
                                    CHANNELS 3 Zrotation Yrotation Xrotation
                                    JOINT RightHandFore3
                                    {
                                        OFFSET 0.129461 -0.001061 0.000861
                                        CHANNELS 3 Zrotation Yrotation Xrotation
                                        End Site
                                        {
                                            OFFSET 0.020036 0.191751 -0.014037
                                        }
                                    }
                                }
                            }
                            JOINT RightHandMiddle1
                            {
                                OFFSET -0.709887 -0.008302 0.018525
                                CHANNELS 3 Zrotation Yrotation Xrotation
                                JOINT RightHandMiddle2
                                {
                                    OFFSET -0.000296 -0.241349 0.042573
                                    CHANNELS 3 Zrotation Yrotation Xrotation
                                    JOINT RightHandMiddle3
                                    {
                                        OFFSET 0.141565 -0.033315 0.015296
                                        CHANNELS 3 Zrotation Yrotation Xrotation
                                        End Site
                                        {
                                            OFFSET 0.003882 0.225625 -0.068620
                                        }
                                    }
                                }
                            }
                            JOINT RightHandRing1
                            {
                                OFFSET -0.743819 -0.005785 -0.153669
                                CHANNELS 3 Zrotation Yrotation Xrotation
                                JOINT RightHandRing2
                                {
                                    OFFSET 0.012136 -0.351343 0.033823
                                    CHANNELS 3 Zrotation Yrotation Xrotation
                                    JOINT RightHandRing3
                                    {
                                        OFFSET 0.127170 -0.032148 -0.037406
                                        CHANNELS 3 Zrotation Yrotation Xrotation
                                        End Site
                                        {
                                            OFFSET -0.002306 0.120017 0.003280
                                        }
                                    }
                                }
                            }
                            JOINT RightHandLittle1
                            {
                                OFFSET -0.689403 -0.053298 -0.308303
                                CHANNELS 3 Zrotation Yrotation Xrotation
                                JOINT RightHandLittle2
                                {
                                    OFFSET 0.002353 -0.193830 0.021902
                                    CHANNELS 3 Zrotation Yrotation Xrotation
                                    JOINT RightHandLittle3
                                    {
                                        OFFSET 0.110182 -0.026819 -0.040449
                                        CHANNELS 3 Zrotation Yrotation Xrotation
                                        End Site
                                        {
                                            OFFSET 0.072871 0.171765 -0.038407
                                        }
                                    }
                                }
                            }
                        }
                    }
                }
            }
        }
    }
    JOINT LeftHip
    {
        OFFSET 0.685143 0.673822 -0.044491
        CHANNELS 3 Zrotation Yrotation Xrotation
        JOINT LeftKnee
        {
            OFFSET 0.085364 -3.750208 0.017676
            CHANNELS 3 Zrotation Yrotation Xrotation
            JOINT LeftAnkle
            {
                OFFSET 0.094583 -4.155206 0.019585
                CHANNELS 3 Zrotation Yrotation Xrotation
                JOINT LeftToe
                {
                    OFFSET -0.000000 -0.395925 0.621478
                    CHANNELS 3 Zrotation Yrotation Xrotation
                    End Site
                    {
                        OFFSET -0.000000 -0.077878 0.321152
                    }
                }
            }
        }
    }
    JOINT RightHip
    {
        OFFSET -0.685143 0.673822 -0.044492
        CHANNELS 3 Zrotation Yrotation Xrotation
        JOINT RightKnee
        {
            OFFSET -0.085364 -3.750208 0.017677
            CHANNELS 3 Zrotation Yrotation Xrotation
            JOINT RightAnkle
            {
                OFFSET -0.094583 -4.155206 0.019585
                CHANNELS 3 Zrotation Yrotation Xrotation
                JOINT RightToe
                {
                    OFFSET -0.000000 -0.395925 0.621478
                    CHANNELS 3 Zrotation Yrotation Xrotation
                    End Site
                    {
                        OFFSET -0.000000 -0.077878 0.321152
                    }
                }
            }
        }
    }
}
MOTION
Frames: 4
Frame Time: 0.033333
0.656102 6.828936 -6.056447 173.691772 -23.864172 -174.137573 -19.117687 -27.796164 27.478247 -2.549606 4.292574 -5.425159 -6.932637 6.411435 -0.497002 -1.120317 20.795679 0.193263 -4.610432 -14.104649 0.333792 -29.119423 -14.223401 -8.221068 0.484566 -54.672241 -0.944695 8.547707 23.894846 -7.887229 0.000001 -0.000000 0.000003 28.258600 -52.947830 -0.601500 35.046040 -14.134508 -23.201542 0.269955 12.186437 1.893091 -8.356474 -2.082709 2.647878 -4.614066 -1.023944 1.659341 82.948349 -4.145946 8.471151 76.260979 4.666714 7.110541 102.638786 5.089906 10.260788 82.662354 6.218925 6.823640 75.012901 -2.889322 -0.124091 96.855743 -17.978352 22.535992 85.758118 8.909194 11.897168 71.955635 3.825668 -2.929230 84.083145 -12.689029 20.034969 10.164252 -4.491805 -0.795615 40.950691 -21.516069 -1.343827 -0.285358 45.651276 -0.685316 -29.577271 -8.520372 8.326426 0.000001 -0.000000 -0.000020 -11.414483 -1.729996 -34.560352 -23.044088 32.003574 -22.550425 -88.541061 4.365320 4.025248 -83.383644 -6.673340 12.701462 -85.390419 7.627959 6.831427 -82.948410 4.144293 8.472348 -75.654701 -8.202721 16.466822 -101.585556 -4.032911 22.447248 -82.662331 -6.218518 6.823993 -72.813110 -19.721821 0.128124 -89.327293 -37.366119 -21.501215 -85.758118 -8.909492 11.897187 -66.237762 -22.966963 -10.089663 -59.434689 -38.164043 -40.487408 -20.194292 -2.287062 -39.888676 1.190637 1.299012 85.012306 -3.409467 2.079320 -55.096519 -0.000001 0.000002 -0.000002 7.854152 -3.256172 -64.107681 -0.402235 -0.941984 46.247208 -5.977305 -14.612585 -18.063829 0.000000 -0.000001 0.000007
0.526878 6.696847 -6.051628 172.589035 -21.929361 -172.432846 -19.425341 -26.573740 26.503906 -2.887597 4.085536 -5.996156 -9.257434 7.492182 -0.847583 -1.235808 22.729877 -0.793738 -3.083173 -13.934834 0.204115 -29.615154 -14.518441 -18.876305 0.672457 -60.180161 -1.167820 -1.803995 27.170916 -3.824803 0.000000 0.000003 0.000002 28.367458 -53.052002 -0.705919 35.222618 -14.317387 -23.454012 0.256747 12.157218 1.913162 -8.356471 -2.082712 2.647878 -4.614067 -1.023941 1.659339 82.971771 -4.145741 8.470098 76.260979 4.666708 7.110538 102.638786 5.089905 10.260782 82.739334 6.094896 6.849091 75.012901 -2.889327 -0.124092 96.855743 -17.978357 22.535988 85.784561 8.993587 11.917362 71.955635 3.825668 -2.929229 84.083153 -12.689031 20.034966 9.766659 -4.386711 -0.739348 38.642090 -20.550344 -1.212404 -0.248329 43.340939 -0.632271 -20.045128 -6.535042 5.154911 -0.000008 -0.000005 -0.000009 -11.493755 -1.707954 -34.651165 -23.404173 32.039993 -22.850588 -88.525818 4.385815 3.996535 -83.383644 -6.673340 12.701461 -85.390427 7.627959 6.831426 -82.971832 4.144097 8.471297 -75.654701 -8.202724 16.466824 -101.585548 -4.032910 22.447248 -82.739319 -6.094479 6.849433 -72.813118 -19.721821 0.128123 -89.327286 -37.366119 -21.501217 -85.784554 -8.993890 11.917369 -66.237770 -22.966961 -10.089664 -59.434696 -38.164051 -40.487411 -22.932211 -2.320488 -41.809669 1.235988 1.302174 87.010139 -2.623944 4.068773 -57.081764 -0.000002 -0.000003 -0.000002 6.788997 -1.694460 -67.793114 -0.443401 -0.979738 48.701862 -6.524851 -14.062816 -12.515408 -0.000002 -0.000001 -0.000005
0.395036 6.587270 -6.046040 171.486298 -20.021664 -170.728073 -19.728369 -25.161966 25.563765 -3.162248 3.848919 -6.497813 -11.599552 8.456699 -1.284070 -1.332103 24.301872 -1.878236 -1.566792 -13.787757 0.082019 -29.590870 -16.817923 -28.189062 0.862541 -64.177483 -1.382914 -13.013098 33.647575 6.488392 0.000011 -0.000000 0.000001 28.473791 -53.154491 -0.808675 35.396080 -14.496045 -23.701105 0.243578 12.128579 1.933260 -8.356472 -2.082714 2.647877 -4.614065 -1.023944 1.659338 82.994675 -4.145549 8.469067 76.260986 4.666707 7.110537 102.638779 5.089909 10.260779 82.814491 5.973628 6.873959 75.012901 -2.889331 -0.124088 96.855743 -17.978359 22.535992 85.810555 9.077794 11.937159 71.955635 3.825667 -2.929228 84.083153 -12.689031 20.034971 9.421485 -4.266779 -0.683435 36.482540 -18.988047 -1.090890 -0.197290 39.627129 -0.554915 -10.820269 -4.099391 2.430272 -0.000003 0.000006 -0.000003 -11.572054 -1.687244 -34.740173 -23.756334 32.073566 -23.144869 -88.510567 4.406306 3.968419 -83.383636 -6.673339 12.701458 -85.390427 7.627957 6.831426 -82.994720 4.143902 8.470262 -75.654694 -8.202724 16.466824 -101.585556 -4.032908 22.447250 -82.814476 -5.973217 6.874297 -72.813126 -19.721827 0.128126 -89.327286 -37.366119 -21.501213 -85.810547 -9.078097 11.937166 -66.237770 -22.966963 -10.089662 -59.434696 -38.164051 -40.487415 -25.698463 -2.349475 -43.529194 1.268470 1.303463 88.438622 -1.706000 6.023550 -58.700031 -0.000001 0.000002 0.000000 5.192219 0.092202 -71.141296 -0.477607 -1.008755 50.672886 -7.481104 -13.810282 -7.108138 -0.000000 0.000001 0.000002
0.261748 6.505443 -6.043531 170.472977 -18.113596 -169.161530 -20.017078 -23.575037 24.674015 -3.387312 3.586507 -6.930811 -13.767693 9.321543 -1.741810 -1.411399 25.567997 -2.910553 -0.184960 -13.699737 -0.021289 -27.800554 -19.630024 -33.575005 1.075552 -67.515366 -1.616502 -26.207212 41.211887 5.388683 0.000010 0.000005 0.000007 28.577427 -53.255211 -0.909631 35.566151 -14.670246 -23.942509 0.230468 12.100575 1.953359 -8.356471 -2.082705 2.647877 -4.614063 -1.023944 1.659338 83.017021 -4.145370 8.468060 76.260979 4.666711 7.110534 102.638786 5.089905 10.260780 82.887718 5.855276 6.898228 75.012894 -2.889327 -0.124090 96.855743 -17.978354 22.535992 85.836090 9.161763 11.956546 71.955635 3.825670 -2.929228 84.083145 -12.689036 20.034969 9.148597 -4.131487 -0.629777 34.578506 -16.669279 -0.978546 -0.138018 34.213345 -0.455776 -2.046378 -1.423287 0.432772 0.000011 0.000005 -0.000012 -11.649317 -1.667907 -34.827251 -24.100136 32.104408 -23.432810 -88.495331 4.426786 3.940955 -83.383644 -6.673340 12.701461 -85.390427 7.627958 6.831426 -83.017075 4.143705 8.469266 -75.654694 -8.202723 16.466822 -101.585548 -4.032910 22.447245 -82.887688 -5.854877 6.898570 -72.813118 -19.721823 0.128123 -89.327293 -37.366119 -21.501215 -85.836090 -9.162086 11.956569 -66.237770 -22.966963 -10.089664 -59.434689 -38.164051 -40.487411 -28.370155 -2.371884 -44.918922 1.286851 1.303833 89.246452 -0.734653 7.961928 -59.936695 0.000002 0.000005 0.000000 3.534135 1.641237 -74.047600 -0.506214 -1.031527 52.279613 -8.645182 -13.344078 -2.014792 0.000001 0.000002 0.000001
